<svg xmlns="http://www.w3.org/2000/svg" viewBox="0 0 1024 1024"><defs><style>.cls-1{fill:#ffb000;}.cls-2{fill:#dbdbdb;}.cls-3{fill:#c81125;}.cls-4{fill:#0036a3;}.cls-5{fill:#f5cb15;}.cls-6{opacity:0.85;}.cls-7{fill:#fff;opacity:0.08;}</style></defs><title>birb</title><g id="Layer_3" data-name="Layer 3"><rect class="cls-1" width="1024" height="1024"/><path class="cls-2" d="M853.82,309.38S944.64,454.91,959.34,523.1c14.92,69.26-17,172.73-72.11,227.38,0,0,27.35-86.26,14.51-98.93-71.23-70.26-197-109.91-278.74-97.71,14.78-1.24,154.76-2.93,273,100.59,0,0-36.66,8.46-72.93-13.74l-22,66.36L701.25,773.9,471.31,632.76,367,359.76,676.19,256.68Z"/><path class="cls-3" d="M439.6,384.28c-1.91,1.91,27.92,7.93,58.26-8,0,0-3.47,24.94-26.22,35.92,0,0,21.77.61,34.46-11.52,25.72,17.93,29.46,50.62,29.35,74.65-46.39-34.46-96.51-27-96.51-27s78.48,23.42,110.39,94.27c-14.82-16.32-55.16-21.08-84.17-2.53,36.38-5.13,72.21-1.59,90.68,22-24.4-6.34-50.23,2-62.54,21,31.1-13.29,59.9-13.9,80.19-.67-1.84,7.37-1.21,15.36.65,20.25-12.66-7.36-70.13-2.25-89.36,18.36,17.47-9.88,66.06-22,91.12-10-.39,12.2,8,30.25,18.13,37.2-9.6,5.63-72.54-1.22-103.54-12.93,73.43,43.06,181.26,23.87,183.23,19.64-14.56,15.25-52.6,28.53-85.73,25.62,70.89,15.25,127.11-11.1,156.08-35.86-20.39,26-32.81,53.3-13.63,96.85-6.1-40.86,5.93-74.84,33-91.49-13.63,20.21-13,58.31-.66,72.83,0,0,6.32-66.36,52.42-58.34,0,0-15,79.44,2.54,118.48s64.19,103.44,84.41,152.23S923.23,1025,923.23,1025H211.86L197.79,493.09Z"/><path class="cls-4" d="M875.1,344.83c-42.94-171-223.23-219.37-326.52-220.74C367,121.68,72.43,256.68,61,627.64c12.09-54.41,47.37-104.3,91-126.38C123.87,532,80.35,615,98.15,719.86c-1.84-2.07,13.19-58.55,49.79-86.36-23.19,42.93-35.28,133.2-6.26,194.68,3.95-36.59,31.49-67.15,40.56-74.65C161.46,826.72,162.12,973.83,179,1025h75.09c-1.76-73.2,28.47-145.53,103.65-186.52-40-5.85-76.06,3.9-111.67,35.62,46.16-105.39,168.1-95.94,182.46-92.71-49.25-33.18-139.82-22.93-195.43,35.13,15.38-59.28,73.42-101.73,124.2-98.07-25.72-29.28-99.58-17.81-121.51,14.45,2.14-56.54,39.57-91.58,60-109.6-19,15.92-43.58,23.66-72.87,16.47,38.85-16,77.22-46.48,83.37-66.73-25.94-1-61.55,20.49-88.15,55.63,19.12-70.27,118.71-132.48,188.61-141.87-37.92-7.69-105.19,15.73-140.47,54.89,64-105.39,174.77-163.22,248.63-193.59-4-4.76-31.44-7.81-61.33,4.76,48.14-55,130.47-50.5,163.88-9.88,42.54-48.68,98.26-56.73,159.93-26.72C821.78,296.82,856.34,320.24,875.1,344.83Z"/><path class="cls-5" d="M735.66,384.82l8.24-8.22-7.78-9-60.31,4.08c-.1-1.45-.23-2.88-.41-4.3l54.66-7.88-6.52-6.76-48.85,10.15a68.65,68.65,0,0,0-9.05-23.28l41.35-30,.17-9.72-44,36q-1.21-1.69-2.52-3.3L705.78,290l.41-12.07-11.41-.43L654.7,326.26c-1-.94-2-1.85-3.11-2.72l33.56-47.2-9.06.17-28,44.39a59.29,59.29,0,0,0-21.78-9.68l9.45-52.38-6.29-7-7.34,58.63c-1.32-.19-2.64-.33-4-.43L622,245.83,614.31,237,606,245.33l3.8,64.71c-1.35.1-2.69.24-4,.43l-7.34-58.63-6.3,7,9.45,52.38a59.1,59.1,0,0,0-21.72,9.65l-27.69-44-9.06-.17,33.27,46.79c-1.06.87-2.1,1.77-3.11,2.72l-39.46-48-11.24-.43L522.14,290l45.11,42.66c-.88,1.09-1.74,2.21-2.56,3.36l-43.6-35.69.16,9.72,41,29.7a68.79,68.79,0,0,0-9,23.46l-48.45-10.07-6.52,6.75,54.28,7.83q-.25,2.13-.39,4.29l-59.49-4-8.24,8.23,7.78,9,60-4.06c.09,1.46.23,2.9.41,4.33l-54.32,7.83,6.52,6.75L553.25,390a68.9,68.9,0,0,0,9.09,23.3l-40.72,29.52-.16,9.72L564.84,417c.82,1.14,1.67,2.25,2.56,3.34l-44.57,42.15-.4,12.07,11.4.43,39.61-48.22c1,1,2.08,1.86,3.16,2.74l-33.14,46.61,9.06-.17,27.58-43.8a59.29,59.29,0,0,0,21.73,9.51l-9.37,52,6.29,7L606,442.4c1.32.18,2.66.32,4,.41l-3.74,63.82,7.66,8.84,8.35-8.35-3.78-64.36c1.36-.1,2.7-.26,4-.46l7.3,58.32,6.3-7-9.4-52.1a59.33,59.33,0,0,0,21.68-9.81l27.78,44.11,9.06.17L651.89,429c1.06-.88,2.08-1.79,3.08-2.73l39.61,48.2,11.24.44.41-12.24-45.31-42.85c.87-1.09,1.72-2.21,2.53-3.36l43.83,35.88-.16-9.72-41.23-29.89a68.73,68.73,0,0,0,8.86-23.23l48.79,10.13,6.52-6.75-54.61-7.87c.17-1.41.29-2.84.38-4.27Z"/><g class="cls-6"><path class="cls-7" d="M98,719a1.63,1.63,0,0,0,.15.91Z"/><path class="cls-7" d="M779.22,315.48h0c109.4,109.51,171.74,264.2,108,435,55.07-54.65,87-158.12,72.11-227.38-10.13-47-56.44-130.77-84.24-178.27-10.41-13.65-25.68-26.92-44.8-32.72,19.12,5.8,34.39,19.07,44.8,32.72-42.94-171-223.23-219.37-326.52-220.74-46.82-.63-101.15,7.89-156.21,27.23C516.36,142.88,670.87,207,779.22,315.48Zm32.34-6.38c-.54,0-1.07,0-1.62,0C810.49,309.06,811,309.09,811.56,309.1ZM829.77,312c-.89-.26-1.78-.52-2.69-.75C828,311.44,828.88,311.7,829.77,312Zm-3.26-.88q-3-.74-6.08-1.22Q823.52,310.34,826.51,311.08Zm-7.77-1.43-1.74-.23Zm-3.46-.36c-.59,0-1.18-.1-1.78-.13C814.1,309.19,814.69,309.25,815.28,309.29Zm-28,3.29c.42-.14.85-.24,1.27-.36C788.11,312.34,787.68,312.44,787.26,312.58Zm3.93-1.11.77-.18Zm3.87-.89c.32-.07.64-.11,1-.17C795.7,310.47,795.38,310.51,795.06,310.58Zm7.57-1.15,1.48-.12Zm3.69-.28h0Z"/><path class="cls-7" d="M288.76,597.55h0q-5-9.42-9.56-18.93h0q-5.7-11.79-10.88-23.73c-24.23,21.82-42.93,47.2-50.15,73.74h0c7.22-26.53,25.91-51.91,50.14-73.73-41.43-95.74-56.88-198.09-47.95-301.2C132.65,334.06,66.31,455.42,61,627.64c12.09-54.4,47.37-104.3,91-126.38C124,531.91,80.61,614.47,98,719c.14-7.68,15.48-59.27,49.94-85.45-23.19,42.93-35.28,133.2-6.26,194.68,3.95-36.59,31.49-67.15,40.56-74.65C161.46,826.72,162.12,973.83,179,1025h75.09c-.88-36.6,6.24-73,23-105.34-16.73,32.36-23.85,68.74-23,105.34H923.23C595.47,945.65,388.44,787,288.76,597.55ZM357.33,718.4h0C342.06,701,309.82,698,281.55,705.16,309.82,698,342.06,701,357.33,718.4Zm-66.64,19.22C266.41,753.48,246,778,235.9,807.35,246,778,266.41,753.48,290.69,737.62ZM262.26,712l.53-.24Zm42.16,17.79a132.18,132.18,0,0,0-12.84,7.28A132.18,132.18,0,0,1,304.42,729.78Zm-32.9-21.57q1.35-.48,2.73-.93Q272.87,707.73,271.52,708.21Zm-35.7,24.64h0c2.14-56.54,39.57-91.58,60-109.6h0C275.39,641.27,238,676.31,235.82,732.85Zm45.39-99.65c.76-.41,1.52-.83,2.26-1.26C282.73,632.37,282,632.79,281.21,633.2Zm-10.45-50.63c-1.1.56-2.19,1.14-3.29,1.76C268.57,583.71,269.66,583.13,270.76,582.57Zm7.53-3.56c-1,.42-2,.84-3,1.31C276.31,579.85,277.3,579.43,278.29,579Zm-3.56,1.59c-1.11.52-2.21,1-3.33,1.62C272.52,581.65,273.62,581.12,274.73,580.6Zm-8,4.15c-1.08.61-2.16,1.23-3.24,1.89C264.6,586,265.68,585.36,266.76,584.75ZM263,587c-1.14.7-2.28,1.42-3.42,2.17C260.71,588.4,261.85,587.68,263,587Zm-24.26,18.75c-.84.79-1.68,1.57-2.51,2.39C237.05,607.3,237.89,606.52,238.73,605.73Zm20.61-16.42c-1.24.82-2.48,1.66-3.72,2.54C256.86,591,258.1,590.13,259.34,589.31Zm-4.11,2.83c-1.18.84-2.37,1.71-3.55,2.6C252.86,593.85,254.05,593,255.23,592.14Zm-4.2,3.12c-1.09.83-2.18,1.68-3.27,2.56C248.85,596.94,249.94,596.09,251,595.26Zm-4,3.17c-1.05.87-2.11,1.74-3.16,2.65C244.92,600.17,246,599.3,247,598.43Zm-4.36,3.72c-.88.78-1.77,1.55-2.65,2.36C240.9,603.7,241.79,602.93,242.67,602.15ZM230.31,614.2c-.51.55-1,1.08-1.53,1.64C229.28,615.28,229.8,614.75,230.31,614.2Zm4-4.15c-.61.61-1.23,1.22-1.84,1.85C233.07,611.27,233.69,610.66,234.3,610.05Zm41.21-1-.34.27Zm-3.72,2.85-.43.32ZM250.52,626l0,0ZM246,628.52h0Zm-8.13,4.31-1,.51ZM223,639.72c18.06,4.43,34.35,3.18,48.63-2.15-14.28,5.33-30.57,6.59-48.63,2.15ZM277.65,635c-1.65.78-3.34,1.51-5,2.18C274.31,636.51,276,635.78,277.65,635Zm80.12,203.43c-40-5.85-76.06,3.9-111.67,35.62h0c35.61-31.72,71.66-41.47,111.67-35.62Zm70.79-57.09c-49.25-33.18-139.82-22.93-195.43,35.13h0c55.61-58.06,146.18-68.31,195.43-35.13Z"/></g></g></svg>